<svg xmlns="http://www.w3.org/2000/svg" xmlns:xlink="http://www.w3.org/1999/xlink" width="3000" zoomAndPan="magnify" viewBox="0 0 2250 2250.000011" height="3000" preserveAspectRatio="xMidYMid meet" version="1.0"><defs><g/><clipPath id="11e3fad52b"><path d="M 0.5 0 L 2249.5 0 L 2249.5 2249 L 0.5 2249 Z M 0.5 0 " clip-rule="nonzero"/></clipPath><linearGradient x1="0" gradientTransform="matrix(0.749667, 0, 0, 0.749667, 0.499772, 0.0000999556)" y1="0" x2="0" gradientUnits="userSpaceOnUse" y2="2999.999875" id="6e77b51738"><stop stop-opacity="1" stop-color="rgb(7.798767%, 61.599731%, 86.698914%)" offset="0"/><stop stop-opacity="1" stop-color="rgb(7.873535%, 61.476135%, 86.595154%)" offset="0.0078125"/><stop stop-opacity="1" stop-color="rgb(8.024597%, 61.230469%, 86.386108%)" offset="0.015625"/><stop stop-opacity="1" stop-color="rgb(8.175659%, 60.984802%, 86.177063%)" offset="0.0234375"/><stop stop-opacity="1" stop-color="rgb(8.326721%, 60.740662%, 85.968018%)" offset="0.03125"/><stop stop-opacity="1" stop-color="rgb(8.477783%, 60.494995%, 85.760498%)" offset="0.0390625"/><stop stop-opacity="1" stop-color="rgb(8.627319%, 60.249329%, 85.551453%)" offset="0.046875"/><stop stop-opacity="1" stop-color="rgb(8.778381%, 60.003662%, 85.342407%)" offset="0.0546875"/><stop stop-opacity="1" stop-color="rgb(8.929443%, 59.759521%, 85.134888%)" offset="0.0625"/><stop stop-opacity="1" stop-color="rgb(9.080505%, 59.513855%, 84.925842%)" offset="0.0703125"/><stop stop-opacity="1" stop-color="rgb(9.231567%, 59.268188%, 84.716797%)" offset="0.078125"/><stop stop-opacity="1" stop-color="rgb(9.381104%, 59.022522%, 84.507751%)" offset="0.0859375"/><stop stop-opacity="1" stop-color="rgb(9.532166%, 58.776855%, 84.300232%)" offset="0.09375"/><stop stop-opacity="1" stop-color="rgb(9.683228%, 58.532715%, 84.091187%)" offset="0.101562"/><stop stop-opacity="1" stop-color="rgb(9.83429%, 58.287048%, 83.882141%)" offset="0.109375"/><stop stop-opacity="1" stop-color="rgb(9.985352%, 58.041382%, 83.674622%)" offset="0.117188"/><stop stop-opacity="1" stop-color="rgb(10.136414%, 57.795715%, 83.465576%)" offset="0.125"/><stop stop-opacity="1" stop-color="rgb(10.28595%, 57.551575%, 83.256531%)" offset="0.132812"/><stop stop-opacity="1" stop-color="rgb(10.437012%, 57.305908%, 83.049011%)" offset="0.140625"/><stop stop-opacity="1" stop-color="rgb(10.588074%, 57.060242%, 82.839966%)" offset="0.148438"/><stop stop-opacity="1" stop-color="rgb(10.739136%, 56.814575%, 82.63092%)" offset="0.15625"/><stop stop-opacity="1" stop-color="rgb(10.890198%, 56.570435%, 82.421875%)" offset="0.164062"/><stop stop-opacity="1" stop-color="rgb(11.039734%, 56.324768%, 82.214355%)" offset="0.171875"/><stop stop-opacity="1" stop-color="rgb(11.190796%, 56.079102%, 82.00531%)" offset="0.179688"/><stop stop-opacity="1" stop-color="rgb(11.341858%, 55.833435%, 81.796265%)" offset="0.1875"/><stop stop-opacity="1" stop-color="rgb(11.49292%, 55.587769%, 81.588745%)" offset="0.195312"/><stop stop-opacity="1" stop-color="rgb(11.643982%, 55.343628%, 81.3797%)" offset="0.203125"/><stop stop-opacity="1" stop-color="rgb(11.795044%, 55.097961%, 81.170654%)" offset="0.210938"/><stop stop-opacity="1" stop-color="rgb(11.94458%, 54.852295%, 80.963135%)" offset="0.21875"/><stop stop-opacity="1" stop-color="rgb(12.095642%, 54.606628%, 80.754089%)" offset="0.226562"/><stop stop-opacity="1" stop-color="rgb(12.246704%, 54.362488%, 80.545044%)" offset="0.234375"/><stop stop-opacity="1" stop-color="rgb(12.397766%, 54.116821%, 80.335999%)" offset="0.242188"/><stop stop-opacity="1" stop-color="rgb(12.548828%, 53.871155%, 80.128479%)" offset="0.25"/><stop stop-opacity="1" stop-color="rgb(12.698364%, 53.625488%, 79.919434%)" offset="0.257812"/><stop stop-opacity="1" stop-color="rgb(12.849426%, 53.381348%, 79.710388%)" offset="0.265625"/><stop stop-opacity="1" stop-color="rgb(13.000488%, 53.135681%, 79.502869%)" offset="0.273438"/><stop stop-opacity="1" stop-color="rgb(13.15155%, 52.890015%, 79.293823%)" offset="0.28125"/><stop stop-opacity="1" stop-color="rgb(13.302612%, 52.644348%, 79.084778%)" offset="0.289062"/><stop stop-opacity="1" stop-color="rgb(13.452148%, 52.398682%, 78.875732%)" offset="0.296875"/><stop stop-opacity="1" stop-color="rgb(13.60321%, 52.154541%, 78.668213%)" offset="0.304688"/><stop stop-opacity="1" stop-color="rgb(13.754272%, 51.908875%, 78.459167%)" offset="0.3125"/><stop stop-opacity="1" stop-color="rgb(13.905334%, 51.663208%, 78.250122%)" offset="0.320312"/><stop stop-opacity="1" stop-color="rgb(14.056396%, 51.417542%, 78.042603%)" offset="0.328125"/><stop stop-opacity="1" stop-color="rgb(14.207458%, 51.173401%, 77.833557%)" offset="0.335938"/><stop stop-opacity="1" stop-color="rgb(14.356995%, 50.927734%, 77.624512%)" offset="0.34375"/><stop stop-opacity="1" stop-color="rgb(14.508057%, 50.682068%, 77.416992%)" offset="0.351562"/><stop stop-opacity="1" stop-color="rgb(14.659119%, 50.436401%, 77.207947%)" offset="0.359375"/><stop stop-opacity="1" stop-color="rgb(14.810181%, 50.192261%, 76.998901%)" offset="0.367188"/><stop stop-opacity="1" stop-color="rgb(14.961243%, 49.946594%, 76.789856%)" offset="0.375"/><stop stop-opacity="1" stop-color="rgb(15.110779%, 49.700928%, 76.582336%)" offset="0.382812"/><stop stop-opacity="1" stop-color="rgb(15.261841%, 49.455261%, 76.373291%)" offset="0.390625"/><stop stop-opacity="1" stop-color="rgb(15.412903%, 49.211121%, 76.164246%)" offset="0.398438"/><stop stop-opacity="1" stop-color="rgb(15.563965%, 48.965454%, 75.956726%)" offset="0.40625"/><stop stop-opacity="1" stop-color="rgb(15.715027%, 48.719788%, 75.747681%)" offset="0.414062"/><stop stop-opacity="1" stop-color="rgb(15.866089%, 48.474121%, 75.538635%)" offset="0.421875"/><stop stop-opacity="1" stop-color="rgb(16.015625%, 48.228455%, 75.32959%)" offset="0.429688"/><stop stop-opacity="1" stop-color="rgb(16.166687%, 47.984314%, 75.12207%)" offset="0.4375"/><stop stop-opacity="1" stop-color="rgb(16.317749%, 47.738647%, 74.913025%)" offset="0.445312"/><stop stop-opacity="1" stop-color="rgb(16.468811%, 47.492981%, 74.703979%)" offset="0.453125"/><stop stop-opacity="1" stop-color="rgb(16.619873%, 47.247314%, 74.49646%)" offset="0.460938"/><stop stop-opacity="1" stop-color="rgb(16.769409%, 47.003174%, 74.287415%)" offset="0.46875"/><stop stop-opacity="1" stop-color="rgb(16.920471%, 46.757507%, 74.078369%)" offset="0.476562"/><stop stop-opacity="1" stop-color="rgb(17.071533%, 46.511841%, 73.87085%)" offset="0.484375"/><stop stop-opacity="1" stop-color="rgb(17.222595%, 46.266174%, 73.661804%)" offset="0.492188"/><stop stop-opacity="1" stop-color="rgb(17.373657%, 46.022034%, 73.452759%)" offset="0.5"/><stop stop-opacity="1" stop-color="rgb(17.524719%, 45.776367%, 73.243713%)" offset="0.507812"/><stop stop-opacity="1" stop-color="rgb(17.674255%, 45.530701%, 73.036194%)" offset="0.515625"/><stop stop-opacity="1" stop-color="rgb(17.825317%, 45.285034%, 72.827148%)" offset="0.523438"/><stop stop-opacity="1" stop-color="rgb(17.976379%, 45.039368%, 72.618103%)" offset="0.53125"/><stop stop-opacity="1" stop-color="rgb(18.127441%, 44.795227%, 72.410583%)" offset="0.539062"/><stop stop-opacity="1" stop-color="rgb(18.278503%, 44.549561%, 72.201538%)" offset="0.546875"/><stop stop-opacity="1" stop-color="rgb(18.42804%, 44.303894%, 71.992493%)" offset="0.554688"/><stop stop-opacity="1" stop-color="rgb(18.579102%, 44.058228%, 71.784973%)" offset="0.5625"/><stop stop-opacity="1" stop-color="rgb(18.730164%, 43.814087%, 71.575928%)" offset="0.570312"/><stop stop-opacity="1" stop-color="rgb(18.881226%, 43.56842%, 71.366882%)" offset="0.578125"/><stop stop-opacity="1" stop-color="rgb(19.032288%, 43.322754%, 71.157837%)" offset="0.585938"/><stop stop-opacity="1" stop-color="rgb(19.18335%, 43.077087%, 70.950317%)" offset="0.59375"/><stop stop-opacity="1" stop-color="rgb(19.332886%, 42.832947%, 70.741272%)" offset="0.601562"/><stop stop-opacity="1" stop-color="rgb(19.483948%, 42.58728%, 70.532227%)" offset="0.609375"/><stop stop-opacity="1" stop-color="rgb(19.63501%, 42.341614%, 70.324707%)" offset="0.617188"/><stop stop-opacity="1" stop-color="rgb(19.786072%, 42.095947%, 70.115662%)" offset="0.625"/><stop stop-opacity="1" stop-color="rgb(19.937134%, 41.850281%, 69.906616%)" offset="0.632812"/><stop stop-opacity="1" stop-color="rgb(20.08667%, 41.60614%, 69.697571%)" offset="0.640625"/><stop stop-opacity="1" stop-color="rgb(20.237732%, 41.360474%, 69.490051%)" offset="0.648438"/><stop stop-opacity="1" stop-color="rgb(20.388794%, 41.114807%, 69.281006%)" offset="0.65625"/><stop stop-opacity="1" stop-color="rgb(20.539856%, 40.869141%, 69.07196%)" offset="0.664062"/><stop stop-opacity="1" stop-color="rgb(20.690918%, 40.625%, 68.864441%)" offset="0.671875"/><stop stop-opacity="1" stop-color="rgb(20.840454%, 40.379333%, 68.655396%)" offset="0.679688"/><stop stop-opacity="1" stop-color="rgb(20.991516%, 40.133667%, 68.44635%)" offset="0.6875"/><stop stop-opacity="1" stop-color="rgb(21.142578%, 39.888%, 68.238831%)" offset="0.695312"/><stop stop-opacity="1" stop-color="rgb(21.29364%, 39.64386%, 68.029785%)" offset="0.703125"/><stop stop-opacity="1" stop-color="rgb(21.444702%, 39.398193%, 67.82074%)" offset="0.710938"/><stop stop-opacity="1" stop-color="rgb(21.595764%, 39.152527%, 67.611694%)" offset="0.71875"/><stop stop-opacity="1" stop-color="rgb(21.7453%, 38.90686%, 67.404175%)" offset="0.726562"/><stop stop-opacity="1" stop-color="rgb(21.896362%, 38.661194%, 67.195129%)" offset="0.734375"/><stop stop-opacity="1" stop-color="rgb(22.047424%, 38.417053%, 66.986084%)" offset="0.742188"/><stop stop-opacity="1" stop-color="rgb(22.198486%, 38.171387%, 66.778564%)" offset="0.75"/><stop stop-opacity="1" stop-color="rgb(22.349548%, 37.92572%, 66.569519%)" offset="0.757812"/><stop stop-opacity="1" stop-color="rgb(22.499084%, 37.680054%, 66.360474%)" offset="0.765625"/><stop stop-opacity="1" stop-color="rgb(22.650146%, 37.435913%, 66.152954%)" offset="0.773438"/><stop stop-opacity="1" stop-color="rgb(22.801208%, 37.190247%, 65.943909%)" offset="0.78125"/><stop stop-opacity="1" stop-color="rgb(22.952271%, 36.94458%, 65.734863%)" offset="0.789062"/><stop stop-opacity="1" stop-color="rgb(23.103333%, 36.698914%, 65.525818%)" offset="0.796875"/><stop stop-opacity="1" stop-color="rgb(23.254395%, 36.454773%, 65.318298%)" offset="0.804688"/><stop stop-opacity="1" stop-color="rgb(23.403931%, 36.209106%, 65.109253%)" offset="0.8125"/><stop stop-opacity="1" stop-color="rgb(23.554993%, 35.96344%, 64.900208%)" offset="0.820312"/><stop stop-opacity="1" stop-color="rgb(23.706055%, 35.717773%, 64.692688%)" offset="0.828125"/><stop stop-opacity="1" stop-color="rgb(23.857117%, 35.473633%, 64.483643%)" offset="0.835938"/><stop stop-opacity="1" stop-color="rgb(24.008179%, 35.227966%, 64.274597%)" offset="0.84375"/><stop stop-opacity="1" stop-color="rgb(24.157715%, 34.9823%, 64.065552%)" offset="0.851562"/><stop stop-opacity="1" stop-color="rgb(24.308777%, 34.736633%, 63.858032%)" offset="0.859375"/><stop stop-opacity="1" stop-color="rgb(24.459839%, 34.490967%, 63.648987%)" offset="0.867188"/><stop stop-opacity="1" stop-color="rgb(24.610901%, 34.246826%, 63.439941%)" offset="0.875"/><stop stop-opacity="1" stop-color="rgb(24.761963%, 34.00116%, 63.232422%)" offset="0.882812"/><stop stop-opacity="1" stop-color="rgb(24.913025%, 33.755493%, 63.023376%)" offset="0.890625"/><stop stop-opacity="1" stop-color="rgb(25.062561%, 33.509827%, 62.814331%)" offset="0.898438"/><stop stop-opacity="1" stop-color="rgb(25.213623%, 33.265686%, 62.606812%)" offset="0.90625"/><stop stop-opacity="1" stop-color="rgb(25.364685%, 33.02002%, 62.397766%)" offset="0.914062"/><stop stop-opacity="1" stop-color="rgb(25.515747%, 32.774353%, 62.188721%)" offset="0.921875"/><stop stop-opacity="1" stop-color="rgb(25.666809%, 32.528687%, 61.979675%)" offset="0.929688"/><stop stop-opacity="1" stop-color="rgb(25.816345%, 32.284546%, 61.772156%)" offset="0.9375"/><stop stop-opacity="1" stop-color="rgb(25.967407%, 32.038879%, 61.56311%)" offset="0.945312"/><stop stop-opacity="1" stop-color="rgb(26.118469%, 31.793213%, 61.354065%)" offset="0.953125"/><stop stop-opacity="1" stop-color="rgb(26.269531%, 31.547546%, 61.146545%)" offset="0.960938"/><stop stop-opacity="1" stop-color="rgb(26.420593%, 31.30188%, 60.9375%)" offset="0.96875"/><stop stop-opacity="1" stop-color="rgb(26.570129%, 31.057739%, 60.728455%)" offset="0.976562"/><stop stop-opacity="1" stop-color="rgb(26.721191%, 30.812073%, 60.520935%)" offset="0.984375"/><stop stop-opacity="1" stop-color="rgb(26.872253%, 30.566406%, 60.31189%)" offset="0.992188"/><stop stop-opacity="1" stop-color="rgb(27.023315%, 30.32074%, 60.102844%)" offset="1"/></linearGradient><clipPath id="0991afff2e"><path d="M 1046.738281 1387.542969 L 1203.261719 1387.542969 L 1203.261719 1544.0625 L 1046.738281 1544.0625 Z M 1046.738281 1387.542969 " clip-rule="nonzero"/></clipPath><clipPath id="f4a86d8064"><path d="M 1125 1387.542969 C 1081.777344 1387.542969 1046.738281 1422.582031 1046.738281 1465.804688 C 1046.738281 1509.027344 1081.777344 1544.0625 1125 1544.0625 C 1168.222656 1544.0625 1203.261719 1509.027344 1203.261719 1465.804688 C 1203.261719 1422.582031 1168.222656 1387.542969 1125 1387.542969 " clip-rule="nonzero"/></clipPath><clipPath id="4456f867c5"><path d="M 923.148438 1411.128906 L 1032.496094 1411.128906 L 1032.496094 1520.476562 L 923.148438 1520.476562 Z M 923.148438 1411.128906 " clip-rule="nonzero"/></clipPath><clipPath id="636a3400c4"><path d="M 977.820312 1411.128906 C 947.625 1411.128906 923.148438 1435.609375 923.148438 1465.804688 C 923.148438 1496 947.625 1520.476562 977.820312 1520.476562 C 1008.015625 1520.476562 1032.496094 1496 1032.496094 1465.804688 C 1032.496094 1435.609375 1008.015625 1411.128906 977.820312 1411.128906 " clip-rule="nonzero"/></clipPath><clipPath id="e0ff89f0fe"><path d="M 1217.503906 1411.128906 L 1326.851562 1411.128906 L 1326.851562 1520.476562 L 1217.503906 1520.476562 Z M 1217.503906 1411.128906 " clip-rule="nonzero"/></clipPath><clipPath id="2f617d51ec"><path d="M 1272.179688 1411.128906 C 1241.984375 1411.128906 1217.503906 1435.609375 1217.503906 1465.804688 C 1217.503906 1496 1241.984375 1520.476562 1272.179688 1520.476562 C 1302.375 1520.476562 1326.851562 1496 1326.851562 1465.804688 C 1326.851562 1435.609375 1302.375 1411.128906 1272.179688 1411.128906 " clip-rule="nonzero"/></clipPath><clipPath id="699d212651"><path d="M 1078.242188 1411.128906 L 1171.949219 1411.128906 L 1171.949219 1511.585938 L 1078.242188 1511.585938 Z M 1078.242188 1411.128906 " clip-rule="nonzero"/></clipPath><clipPath id="2decf1f456"><path d="M 270 542 L 906 542 L 906 1179 L 270 1179 Z M 270 542 " clip-rule="nonzero"/></clipPath><clipPath id="6f9a2860e5"><path d="M 287.027344 1195.945312 L -47.992188 860.925781 L 588.121094 224.8125 L 923.140625 559.832031 Z M 287.027344 1195.945312 " clip-rule="nonzero"/></clipPath><clipPath id="64b4869d15"><path d="M 287.027344 1195.945312 L -47.992188 860.925781 L 588.121094 224.8125 L 923.140625 559.832031 Z M 287.027344 1195.945312 " clip-rule="nonzero"/></clipPath><clipPath id="2c2f9e4dd1"><path d="M 1344 1141 L 1980 1141 L 1980 1778 L 1344 1778 Z M 1344 1141 " clip-rule="nonzero"/></clipPath><clipPath id="3c2011547b"><path d="M 1661.78125 2095.542969 L 1326.761719 1760.523438 L 1962.875 1124.410156 L 2297.894531 1459.429688 Z M 1661.78125 2095.542969 " clip-rule="nonzero"/></clipPath><clipPath id="11131fb95f"><path d="M 1326.851562 1760.617188 L 1661.871094 2095.636719 L 2297.984375 1459.523438 L 1962.964844 1124.503906 Z M 1326.851562 1760.617188 " clip-rule="nonzero"/></clipPath></defs><g clip-path="url(#11e3fad52b)"><path fill="#ffffff" d="M 0.5 0 L 2249.5 0 L 2249.5 2256.496094 L 0.5 2256.496094 Z M 0.5 0 " fill-opacity="1" fill-rule="nonzero"/><path fill="#ffffff" d="M 0.5 0 L 2249.5 0 L 2249.5 2249 L 0.5 2249 Z M 0.5 0 " fill-opacity="1" fill-rule="nonzero"/><path fill="url(#6e77b51738)" d="M 0.5 0 L 0.5 2249 L 2249.5 2249 L 2249.5 0 Z M 0.5 0 " fill-rule="nonzero"/></g><g clip-path="url(#0991afff2e)"><g clip-path="url(#f4a86d8064)"><path fill="#ffffff" d="M 1046.738281 1387.542969 L 1203.261719 1387.542969 L 1203.261719 1544.0625 L 1046.738281 1544.0625 Z M 1046.738281 1387.542969 " fill-opacity="1" fill-rule="nonzero"/></g></g><g clip-path="url(#4456f867c5)"><g clip-path="url(#636a3400c4)"><path fill="#ffffff" d="M 923.148438 1411.128906 L 1032.496094 1411.128906 L 1032.496094 1520.476562 L 923.148438 1520.476562 Z M 923.148438 1411.128906 " fill-opacity="1" fill-rule="nonzero"/></g></g><g clip-path="url(#e0ff89f0fe)"><g clip-path="url(#2f617d51ec)"><path fill="#ffffff" d="M 1217.503906 1411.128906 L 1326.851562 1411.128906 L 1326.851562 1520.476562 L 1217.503906 1520.476562 Z M 1217.503906 1411.128906 " fill-opacity="1" fill-rule="nonzero"/></g></g><g clip-path="url(#699d212651)"><path fill="#149ddd" d="M 1128.699219 1507.996094 L 1128.699219 1414.71875 C 1128.699219 1412.738281 1127.085938 1411.128906 1125.09375 1411.128906 C 1123.105469 1411.128906 1121.492188 1412.738281 1121.492188 1414.71875 L 1121.492188 1507.996094 C 1121.492188 1509.976562 1123.105469 1511.585938 1125.09375 1511.585938 C 1127.085938 1511.585938 1128.699219 1509.976562 1128.699219 1507.996094 Z M 1143.105469 1490.058594 L 1143.105469 1432.65625 C 1143.105469 1430.675781 1141.492188 1429.066406 1139.503906 1429.066406 C 1137.515625 1429.066406 1135.902344 1430.675781 1135.902344 1432.65625 L 1135.902344 1490.058594 C 1135.902344 1492.039062 1137.515625 1493.644531 1139.503906 1493.644531 C 1141.492188 1493.644531 1143.105469 1492.039062 1143.105469 1490.058594 Z M 1114.289062 1490.058594 L 1114.289062 1432.65625 C 1114.289062 1430.675781 1112.675781 1429.066406 1110.6875 1429.066406 C 1108.699219 1429.066406 1107.085938 1430.675781 1107.085938 1432.65625 L 1107.085938 1490.058594 C 1107.085938 1492.039062 1108.699219 1493.644531 1110.6875 1493.644531 C 1112.675781 1493.644531 1114.289062 1492.039062 1114.289062 1490.058594 Z M 1157.515625 1479.296875 L 1157.515625 1443.417969 C 1157.515625 1441.4375 1155.898438 1439.832031 1153.910156 1439.832031 C 1151.921875 1439.832031 1150.308594 1441.4375 1150.308594 1443.417969 L 1150.308594 1479.296875 C 1150.308594 1481.277344 1151.921875 1482.882812 1153.910156 1482.882812 C 1155.898438 1482.882812 1157.515625 1481.277344 1157.515625 1479.296875 Z M 1099.882812 1479.296875 L 1099.882812 1443.417969 C 1099.882812 1441.4375 1098.269531 1439.832031 1096.28125 1439.832031 C 1094.292969 1439.832031 1092.675781 1441.4375 1092.675781 1443.417969 L 1092.675781 1479.296875 C 1092.675781 1481.277344 1094.292969 1482.882812 1096.28125 1482.882812 C 1098.269531 1482.882812 1099.882812 1481.277344 1099.882812 1479.296875 Z M 1085.472656 1472.121094 L 1085.472656 1450.59375 C 1085.472656 1448.613281 1083.859375 1447.007812 1081.871094 1447.007812 C 1079.882812 1447.007812 1078.269531 1448.613281 1078.269531 1450.59375 L 1078.269531 1472.121094 C 1078.269531 1474.101562 1079.882812 1475.707031 1081.871094 1475.707031 C 1083.859375 1475.707031 1085.472656 1474.101562 1085.472656 1472.121094 Z M 1171.921875 1472.121094 L 1171.921875 1450.59375 C 1171.921875 1448.613281 1170.308594 1447.007812 1168.320312 1447.007812 C 1166.332031 1447.007812 1164.71875 1448.613281 1164.71875 1450.59375 L 1164.71875 1472.121094 C 1164.71875 1474.101562 1166.332031 1475.707031 1168.320312 1475.707031 C 1170.308594 1475.707031 1171.921875 1474.101562 1171.921875 1472.121094 Z M 1171.921875 1472.121094 " fill-opacity="1" fill-rule="evenodd"/></g><g clip-path="url(#2decf1f456)"><g clip-path="url(#6f9a2860e5)"><g clip-path="url(#64b4869d15)"><path fill="#ffffff" d="M 270.152344 1178.691406 L 270.066406 542.867188 L 905.886719 542.953125 L 905.890625 577.082031 L 304.132812 576.933594 L 304.148438 1178.695312 Z M 270.152344 1178.691406 " fill-opacity="1" fill-rule="nonzero"/></g></g></g><g fill="#ffffff" fill-opacity="1"><g transform="translate(351.343039, 1240.18838)"><g><path d="M 69.5625 -78.84375 L 91.890625 -225.796875 L 125.796875 -225.796875 L 125.796875 0 L 100 0 L 100 -175.078125 L 81.453125 -53.625 L 57.96875 -53.625 L 39.703125 -174.5 L 39.703125 0 L 13.90625 0 L 13.90625 -225.796875 L 47.53125 -225.796875 Z M 69.5625 -78.84375 "/></g></g></g><g fill="#ffffff" fill-opacity="1"><g transform="translate(491.927894, 1240.18838)"><g><path d="M 110.71875 0 L 82.03125 0 L 75.65625 -42.03125 L 36.515625 -42.03125 L 30.4375 0 L 2.3125 0 L 44.0625 -225.796875 L 67.25 -225.796875 Z M 55.9375 -174.203125 L 39.703125 -63.1875 L 72.46875 -63.1875 Z M 55.9375 -174.203125 "/></g></g></g><g fill="#ffffff" fill-opacity="1"><g transform="translate(604.685621, 1240.18838)"><g><path d="M 40.296875 0 L 13.90625 0 L 13.90625 -225.796875 L 44.0625 -225.796875 L 75.65625 -49.859375 L 75.65625 -225.796875 L 102.03125 -225.796875 L 102.03125 0 L 73.046875 0 L 40.296875 -177.6875 Z M 40.296875 0 "/></g></g></g><g fill="#ffffff" fill-opacity="1"><g transform="translate(720.631903, 1240.18838)"><g><path d="M 110.71875 0 L 82.03125 0 L 75.65625 -42.03125 L 36.515625 -42.03125 L 30.4375 0 L 2.3125 0 L 44.0625 -225.796875 L 67.25 -225.796875 Z M 55.9375 -174.203125 L 39.703125 -63.1875 L 72.46875 -63.1875 Z M 55.9375 -174.203125 "/></g></g></g><g fill="#ffffff" fill-opacity="1"><g transform="translate(833.38963, 1240.18838)"><g><path d="M 100.578125 -145.21875 L 72.171875 -145.21875 L 72.171875 -194.5 C 72.171875 -198.363281 71.300781 -201.164062 69.5625 -202.90625 C 67.820312 -204.644531 64.925781 -205.515625 60.875 -205.515625 L 51.890625 -205.515625 C 48.023438 -205.515625 45.171875 -204.644531 43.328125 -202.90625 C 41.492188 -201.164062 40.578125 -198.363281 40.578125 -194.5 L 40.578125 -30.71875 C 40.578125 -26.851562 41.445312 -24.097656 43.1875 -22.453125 C 44.925781 -20.816406 47.828125 -20 51.890625 -20 L 60.875 -20 C 64.925781 -20 67.820312 -20.816406 69.5625 -22.453125 C 71.300781 -24.097656 72.171875 -26.851562 72.171875 -30.71875 L 72.171875 -97.109375 L 57.390625 -97.109375 L 57.390625 -116.515625 L 100.578125 -116.515625 L 100.578125 -29.28125 C 100.578125 -9.5625 89.753906 0.296875 68.109375 0.296875 L 44.921875 0.296875 C 23.285156 0.296875 12.46875 -9.5625 12.46875 -29.28125 L 12.46875 -196.234375 C 12.46875 -215.753906 23.285156 -225.515625 44.921875 -225.515625 L 68.109375 -225.515625 C 89.753906 -225.515625 100.578125 -215.753906 100.578125 -196.234375 Z M 100.578125 -145.21875 "/></g></g></g><g fill="#ffffff" fill-opacity="1"><g transform="translate(944.9879, 1240.18838)"><g><path d="M 43.765625 0 L 15.359375 0 L 15.359375 -225.796875 L 43.765625 -225.796875 Z M 43.765625 0 "/></g></g></g><g fill="#ffffff" fill-opacity="1"><g transform="translate(1003.830611, 1240.18838)"><g><path d="M 40.296875 0 L 13.90625 0 L 13.90625 -225.796875 L 44.0625 -225.796875 L 75.65625 -49.859375 L 75.65625 -225.796875 L 102.03125 -225.796875 L 102.03125 0 L 73.046875 0 L 40.296875 -177.6875 Z M 40.296875 0 "/></g></g></g><g fill="#ffffff" fill-opacity="1"><g transform="translate(1119.776938, 1240.18838)"><g><path d="M 100.578125 -145.21875 L 72.171875 -145.21875 L 72.171875 -194.5 C 72.171875 -198.363281 71.300781 -201.164062 69.5625 -202.90625 C 67.820312 -204.644531 64.925781 -205.515625 60.875 -205.515625 L 51.890625 -205.515625 C 48.023438 -205.515625 45.171875 -204.644531 43.328125 -202.90625 C 41.492188 -201.164062 40.578125 -198.363281 40.578125 -194.5 L 40.578125 -30.71875 C 40.578125 -26.851562 41.445312 -24.097656 43.1875 -22.453125 C 44.925781 -20.816406 47.828125 -20 51.890625 -20 L 60.875 -20 C 64.925781 -20 67.820312 -20.816406 69.5625 -22.453125 C 71.300781 -24.097656 72.171875 -26.851562 72.171875 -30.71875 L 72.171875 -97.109375 L 57.390625 -97.109375 L 57.390625 -116.515625 L 100.578125 -116.515625 L 100.578125 -29.28125 C 100.578125 -9.5625 89.753906 0.296875 68.109375 0.296875 L 44.921875 0.296875 C 23.285156 0.296875 12.46875 -9.5625 12.46875 -29.28125 L 12.46875 -196.234375 C 12.46875 -215.753906 23.285156 -225.515625 44.921875 -225.515625 L 68.109375 -225.515625 C 89.753906 -225.515625 100.578125 -215.753906 100.578125 -196.234375 Z M 100.578125 -145.21875 "/></g></g></g><g fill="#ffffff" fill-opacity="1"><g transform="translate(1231.375163, 1240.18838)"><g/></g></g><g fill="#ffffff" fill-opacity="1"><g transform="translate(1275.72456, 1240.18838)"><g><path d="M 42.03125 -103.765625 L 42.03125 -21.453125 L 91.59375 -21.453125 L 91.59375 0 L 13.90625 0 L 13.90625 -225.796875 L 89.28125 -225.796875 L 89.28125 -204.34375 L 42.03125 -204.34375 L 42.03125 -125.21875 L 82.3125 -125.21875 L 82.3125 -103.765625 Z M 42.03125 -103.765625 "/></g></g></g><g fill="#ffffff" fill-opacity="1"><g transform="translate(1372.249832, 1240.18838)"><g><path d="M 70.140625 -225.796875 C 91.984375 -225.796875 102.90625 -216.039062 102.90625 -196.53125 L 102.90625 -29.28125 C 102.90625 -9.757812 91.984375 0 70.140625 0 L 15.359375 0 L 15.359375 -225.796875 Z M 74.5 -194.78125 C 74.5 -198.644531 73.628906 -201.398438 71.890625 -203.046875 C 70.148438 -204.691406 67.25 -205.515625 63.1875 -205.515625 L 43.484375 -205.515625 L 43.484375 -20 L 63.1875 -20 C 67.25 -20 70.148438 -20.867188 71.890625 -22.609375 C 73.628906 -24.347656 74.5 -27.148438 74.5 -31.015625 Z M 74.5 -194.78125 "/></g></g></g><g fill="#ffffff" fill-opacity="1"><g transform="translate(1487.906159, 1240.18838)"><g><path d="M 83.765625 -225.796875 L 83.765625 -204.34375 L 56.8125 -204.34375 L 56.8125 0 L 28.40625 0 L 28.40625 -204.34375 L 1.453125 -204.34375 L 1.453125 -225.796875 Z M 83.765625 -225.796875 "/></g></g></g><g fill="#ffffff" fill-opacity="1"><g transform="translate(1573.126672, 1240.18838)"><g><path d="M 42.03125 -103.765625 L 42.03125 -21.453125 L 91.59375 -21.453125 L 91.59375 0 L 13.90625 0 L 13.90625 -225.796875 L 89.28125 -225.796875 L 89.28125 -204.34375 L 42.03125 -204.34375 L 42.03125 -125.21875 L 82.3125 -125.21875 L 82.3125 -103.765625 Z M 42.03125 -103.765625 "/></g></g></g><g fill="#ffffff" fill-opacity="1"><g transform="translate(1669.651944, 1240.18838)"><g><path d="M 100.578125 -143.1875 L 72.171875 -143.1875 L 72.171875 -194.78125 C 72.171875 -198.644531 71.347656 -201.398438 69.703125 -203.046875 C 68.066406 -204.691406 65.316406 -205.515625 61.453125 -205.515625 L 51.3125 -205.515625 C 47.632812 -205.515625 44.925781 -204.691406 43.1875 -203.046875 C 41.445312 -201.398438 40.578125 -198.644531 40.578125 -194.78125 L 40.578125 -30.71875 C 40.578125 -26.851562 41.445312 -24.097656 43.1875 -22.453125 C 44.925781 -20.816406 47.632812 -20 51.3125 -20 L 61.453125 -20 C 65.316406 -20 68.066406 -20.816406 69.703125 -22.453125 C 71.347656 -24.097656 72.171875 -26.851562 72.171875 -30.71875 L 72.171875 -82.03125 L 100.578125 -82.03125 L 100.578125 -29.28125 C 100.578125 -9.5625 89.660156 0.296875 67.828125 0.296875 L 44.921875 0.296875 C 23.285156 0.296875 12.46875 -9.5625 12.46875 -29.28125 L 12.46875 -196.53125 C 12.46875 -216.039062 23.285156 -225.796875 44.921875 -225.796875 L 67.828125 -225.796875 C 89.660156 -225.796875 100.578125 -216.039062 100.578125 -196.53125 Z M 100.578125 -143.1875 "/></g></g></g><g fill="#ffffff" fill-opacity="1"><g transform="translate(1779.511072, 1240.18838)"><g><path d="M 77.390625 -125.796875 L 77.390625 -225.796875 L 105.515625 -225.796875 L 105.515625 0 L 77.390625 0 L 77.390625 -104.34375 L 41.734375 -104.34375 L 41.734375 0 L 13.90625 0 L 13.90625 -225.796875 L 41.734375 -225.796875 L 41.734375 -125.796875 Z M 77.390625 -125.796875 "/></g></g></g><g fill="#ffffff" fill-opacity="1"><g transform="translate(815.434839, 921.410558)"><g><path d="M 57.308594 0 C 58.824219 0 59.609375 -0.785156 59.609375 -2.300781 L 59.609375 -11.675781 C 59.609375 -13.132812 58.824219 -13.976562 57.308594 -13.976562 L 24.304688 -13.976562 L 24.304688 -28.402344 L 52.816406 -28.402344 C 54.332031 -28.402344 55.121094 -29.1875 55.121094 -30.703125 L 55.121094 -39.460938 C 55.121094 -40.976562 54.332031 -41.761719 52.816406 -41.761719 L 24.304688 -41.761719 L 24.304688 -72.238281 L 57.308594 -72.238281 C 58.824219 -72.238281 59.609375 -73.082031 59.609375 -74.539062 L 59.609375 -83.914062 C 59.609375 -85.429688 58.824219 -86.214844 57.308594 -86.214844 L 10.832031 -86.214844 C 9.316406 -86.214844 8.53125 -85.429688 8.53125 -83.914062 L 8.53125 -2.300781 C 8.53125 -0.785156 9.316406 0 10.832031 0 Z M 57.308594 0 "/></g></g></g><g fill="#ffffff" fill-opacity="1"><g transform="translate(880.372036, 921.410558)"><g><path d="M 33.789062 0 C 63.425781 0 79.480469 -16.222656 79.480469 -43.164062 C 79.480469 -70.386719 63.203125 -86.214844 33.789062 -86.214844 L 10.832031 -86.214844 C 9.316406 -86.214844 8.53125 -85.429688 8.53125 -83.914062 L 8.53125 -2.300781 C 8.53125 -0.785156 9.316406 0 10.832031 0 Z M 24.417969 -72.238281 L 33.734375 -72.238281 C 52.816406 -72.238281 63.707031 -62.023438 63.707031 -43.332031 C 63.707031 -24.640625 52.816406 -13.976562 33.734375 -13.976562 L 24.417969 -13.976562 Z M 24.417969 -72.238281 "/></g></g></g><g fill="#ffffff" fill-opacity="1"><g transform="translate(965.009274, 921.410558)"><g><path d="M 36.261719 0 C 37.773438 0 38.5625 -0.785156 38.5625 -2.300781 L 38.5625 -72.238281 L 57.253906 -72.238281 C 58.769531 -72.238281 59.554688 -73.082031 59.554688 -74.539062 L 59.554688 -83.914062 C 59.554688 -85.429688 58.769531 -86.214844 57.253906 -86.214844 L 4.042969 -86.214844 C 2.527344 -86.214844 1.738281 -85.429688 1.738281 -83.914062 L 1.738281 -74.539062 C 1.738281 -73.082031 2.527344 -72.238281 4.042969 -72.238281 L 22.675781 -72.238281 L 22.675781 -2.300781 C 22.675781 -0.785156 23.519531 0 24.976562 0 Z M 36.261719 0 "/></g></g></g><g fill="#ffffff" fill-opacity="1"><g transform="translate(1026.35444, 921.410558)"><g><path d="M 50.460938 2.019531 C 64.605469 2.019531 76.5625 -3.3125 84.585938 -12.125 C 85.542969 -13.132812 85.316406 -14.199219 84.082031 -15.15625 L 74.988281 -21.554688 C 73.867188 -22.453125 72.800781 -22.285156 71.847656 -21.273438 C 66.570312 -15.941406 59.105469 -12.628906 50.515625 -12.628906 C 33.621094 -12.628906 20.769531 -24.808594 20.769531 -43.164062 C 20.769531 -61.460938 33.621094 -73.585938 50.40625 -73.585938 C 59.105469 -73.585938 66.515625 -70.273438 71.847656 -64.941406 C 72.800781 -63.933594 73.921875 -63.761719 74.988281 -64.660156 L 84.082031 -71.117188 C 85.261719 -72.070312 85.429688 -73.191406 84.363281 -74.261719 C 76.28125 -83.015625 64.4375 -88.234375 50.40625 -88.234375 C 24.472656 -88.234375 4.9375 -70.164062 4.9375 -43.109375 C 4.9375 -16.054688 24.417969 2.019531 50.460938 2.019531 Z M 50.460938 2.019531 "/></g></g></g><g fill="#ffffff" fill-opacity="1"><g transform="translate(1115.088833, 921.410558)"><g/></g></g><g fill="#ffffff" fill-opacity="1"><g transform="translate(1149.549896, 921.410558)"><g><path d="M 33.621094 2.019531 C 51.023438 2.019531 64.941406 -9.824219 64.941406 -27.898438 C 64.941406 -44.511719 53.605469 -56.464844 37.046875 -56.464844 C 35.472656 -56.464844 33.339844 -56.410156 31.320312 -56.015625 L 35.472656 -72.914062 L 60.394531 -72.914062 C 61.910156 -72.914062 62.695312 -73.753906 62.695312 -75.214844 L 62.695312 -83.914062 C 62.695312 -85.429688 61.910156 -86.214844 60.394531 -86.214844 L 27.277344 -86.214844 C 25.988281 -86.214844 25.035156 -85.597656 24.695312 -84.25 L 15.773438 -50.066406 C 15.378906 -48.71875 15.828125 -47.878906 16.78125 -47.09375 L 21.554688 -43.5 C 22.507812 -42.714844 23.460938 -42.601562 24.695312 -42.996094 C 27.726562 -43.949219 30.648438 -44.566406 33.285156 -44.566406 C 42.492188 -44.566406 50.292969 -38.113281 50.292969 -27.953125 C 50.292969 -16.894531 42.433594 -10.664062 34.351562 -10.664062 C 27.617188 -10.664062 21.160156 -14.03125 16.613281 -21.273438 C 15.773438 -22.453125 14.648438 -22.789062 13.472656 -21.890625 L 5.558594 -16.78125 C 4.378906 -15.996094 4.097656 -14.761719 4.996094 -13.582031 C 12.683594 -1.910156 23.011719 2.019531 33.621094 2.019531 Z M 33.621094 2.019531 "/></g></g></g><g fill="#ffffff" fill-opacity="1"><g transform="translate(1221.390522, 921.410558)"><g><path d="M 34.464844 2.019531 C 51.246094 2.019531 63.425781 -8.925781 63.371094 -25.316406 C 63.371094 -34.6875 59.328125 -41.871094 49.617188 -47.035156 C 55.960938 -50.742188 60.394531 -56.972656 60.394531 -64.828125 C 60.394531 -79.929688 48.550781 -88.234375 34.296875 -88.234375 C 22.058594 -88.234375 12.964844 -82.792969 8.53125 -73.363281 C 7.800781 -71.957031 8.476562 -70.890625 9.765625 -70.332031 L 18.972656 -67.132812 C 20.261719 -66.625 21.160156 -67.132812 21.890625 -68.367188 C 24.417969 -72.632812 28.289062 -75.214844 33.789062 -75.214844 C 41.761719 -75.214844 45.746094 -70.273438 45.746094 -64.210938 C 45.746094 -57.589844 41.199219 -52.539062 32.273438 -52.539062 L 25.707031 -52.539062 C 24.191406 -52.539062 23.40625 -51.75 23.40625 -50.234375 L 23.40625 -42.433594 C 23.40625 -40.917969 24.191406 -40.132812 25.707031 -40.132812 L 32.890625 -40.132812 C 42.546875 -40.132812 48.777344 -35.25 48.832031 -26.4375 C 48.832031 -17.398438 42.882812 -11.167969 34.015625 -11.167969 C 27.617188 -11.167969 22.113281 -13.921875 18.972656 -20.261719 C 18.242188 -21.667969 17.230469 -22.058594 15.941406 -21.496094 L 6.792969 -17.230469 C 5.445312 -16.671875 4.996094 -15.492188 5.613281 -14.144531 C 11.28125 -2.46875 22.171875 2.019531 34.464844 2.019531 Z M 34.464844 2.019531 "/></g></g></g><g fill="#ffffff" fill-opacity="1"><g transform="translate(1291.884137, 921.410558)"><g><path d="M 61.519531 0 C 62.976562 0 63.820312 -0.785156 63.820312 -2.300781 L 63.820312 -11.28125 C 63.820312 -12.742188 62.976562 -13.582031 61.519531 -13.582031 L 33.789062 -13.582031 L 47.148438 -29.859375 C 55.457031 -40.1875 63.089844 -48.382812 63.089844 -61.125 C 63.089844 -76.449219 51.078125 -88.234375 34.519531 -88.234375 C 18.914062 -88.234375 9.148438 -78.804688 6.117188 -65.390625 C 5.78125 -63.988281 6.453125 -63.035156 7.859375 -62.753906 L 17.792969 -60.734375 C 19.253906 -60.453125 20.039062 -61.238281 20.429688 -62.640625 C 22.171875 -70.332031 27.054688 -74.652344 34.800781 -74.652344 C 42.152344 -74.652344 48.382812 -68.871094 48.382812 -61.125 C 48.382812 -53.773438 42.882812 -47.597656 38.054688 -41.703125 L 6.453125 -2.804688 C 5.21875 -1.347656 5.78125 0 7.746094 0 Z M 61.519531 0 "/></g></g></g><g fill="#ffffff" fill-opacity="1"><g transform="translate(1362.714517, 921.410558)"><g><path d="M 33.621094 2.019531 C 51.023438 2.019531 64.941406 -9.824219 64.941406 -27.898438 C 64.941406 -44.511719 53.605469 -56.464844 37.046875 -56.464844 C 35.472656 -56.464844 33.339844 -56.410156 31.320312 -56.015625 L 35.472656 -72.914062 L 60.394531 -72.914062 C 61.910156 -72.914062 62.695312 -73.753906 62.695312 -75.214844 L 62.695312 -83.914062 C 62.695312 -85.429688 61.910156 -86.214844 60.394531 -86.214844 L 27.277344 -86.214844 C 25.988281 -86.214844 25.035156 -85.597656 24.695312 -84.25 L 15.773438 -50.066406 C 15.378906 -48.71875 15.828125 -47.878906 16.78125 -47.09375 L 21.554688 -43.5 C 22.507812 -42.714844 23.460938 -42.601562 24.695312 -42.996094 C 27.726562 -43.949219 30.648438 -44.566406 33.285156 -44.566406 C 42.492188 -44.566406 50.292969 -38.113281 50.292969 -27.953125 C 50.292969 -16.894531 42.433594 -10.664062 34.351562 -10.664062 C 27.617188 -10.664062 21.160156 -14.03125 16.613281 -21.273438 C 15.773438 -22.453125 14.648438 -22.789062 13.472656 -21.890625 L 5.558594 -16.78125 C 4.378906 -15.996094 4.097656 -14.761719 4.996094 -13.582031 C 12.683594 -1.910156 23.011719 2.019531 33.621094 2.019531 Z M 33.621094 2.019531 "/></g></g></g><g clip-path="url(#2c2f9e4dd1)"><g clip-path="url(#3c2011547b)"><g clip-path="url(#11131fb95f)"><path fill="#ffffff" d="M 1344.105469 1777.492188 L 1979.929688 1777.578125 L 1979.839844 1141.757812 L 1945.714844 1141.753906 L 1945.863281 1743.511719 L 1344.101562 1743.496094 Z M 1344.105469 1777.492188 " fill-opacity="1" fill-rule="nonzero"/></g></g></g></svg>