<svg xmlns="http://www.w3.org/2000/svg" xmlns:xlink="http://www.w3.org/1999/xlink" width="3000" zoomAndPan="magnify" viewBox="0 0 2250 2250.000011" height="3000" preserveAspectRatio="xMidYMid meet" version="1.0"><defs><g/><clipPath id="0e4ad2a9e2"><path d="M 0.5 0 L 2249.5 0 L 2249.5 2249 L 0.5 2249 Z M 0.5 0 " clip-rule="nonzero"/></clipPath><linearGradient x1="0" gradientTransform="matrix(0.749667, 0, 0, 0.749667, 0.499772, 0.0000999556)" y1="0" x2="0" gradientUnits="userSpaceOnUse" y2="2999.999875" id="5db1ff1a93"><stop stop-opacity="1" stop-color="rgb(7.798767%, 61.599731%, 86.698914%)" offset="0"/><stop stop-opacity="1" stop-color="rgb(7.873535%, 61.476135%, 86.595154%)" offset="0.0078125"/><stop stop-opacity="1" stop-color="rgb(8.024597%, 61.230469%, 86.386108%)" offset="0.015625"/><stop stop-opacity="1" stop-color="rgb(8.175659%, 60.984802%, 86.177063%)" offset="0.0234375"/><stop stop-opacity="1" stop-color="rgb(8.326721%, 60.740662%, 85.968018%)" offset="0.03125"/><stop stop-opacity="1" stop-color="rgb(8.477783%, 60.494995%, 85.760498%)" offset="0.0390625"/><stop stop-opacity="1" stop-color="rgb(8.627319%, 60.249329%, 85.551453%)" offset="0.046875"/><stop stop-opacity="1" stop-color="rgb(8.778381%, 60.003662%, 85.342407%)" offset="0.0546875"/><stop stop-opacity="1" stop-color="rgb(8.929443%, 59.759521%, 85.134888%)" offset="0.0625"/><stop stop-opacity="1" stop-color="rgb(9.080505%, 59.513855%, 84.925842%)" offset="0.0703125"/><stop stop-opacity="1" stop-color="rgb(9.231567%, 59.268188%, 84.716797%)" offset="0.078125"/><stop stop-opacity="1" stop-color="rgb(9.381104%, 59.022522%, 84.507751%)" offset="0.0859375"/><stop stop-opacity="1" stop-color="rgb(9.532166%, 58.776855%, 84.300232%)" offset="0.09375"/><stop stop-opacity="1" stop-color="rgb(9.683228%, 58.532715%, 84.091187%)" offset="0.101562"/><stop stop-opacity="1" stop-color="rgb(9.83429%, 58.287048%, 83.882141%)" offset="0.109375"/><stop stop-opacity="1" stop-color="rgb(9.985352%, 58.041382%, 83.674622%)" offset="0.117188"/><stop stop-opacity="1" stop-color="rgb(10.136414%, 57.795715%, 83.465576%)" offset="0.125"/><stop stop-opacity="1" stop-color="rgb(10.28595%, 57.551575%, 83.256531%)" offset="0.132812"/><stop stop-opacity="1" stop-color="rgb(10.437012%, 57.305908%, 83.049011%)" offset="0.140625"/><stop stop-opacity="1" stop-color="rgb(10.588074%, 57.060242%, 82.839966%)" offset="0.148438"/><stop stop-opacity="1" stop-color="rgb(10.739136%, 56.814575%, 82.63092%)" offset="0.15625"/><stop stop-opacity="1" stop-color="rgb(10.890198%, 56.570435%, 82.421875%)" offset="0.164062"/><stop stop-opacity="1" stop-color="rgb(11.039734%, 56.324768%, 82.214355%)" offset="0.171875"/><stop stop-opacity="1" stop-color="rgb(11.190796%, 56.079102%, 82.00531%)" offset="0.179688"/><stop stop-opacity="1" stop-color="rgb(11.341858%, 55.833435%, 81.796265%)" offset="0.1875"/><stop stop-opacity="1" stop-color="rgb(11.49292%, 55.587769%, 81.588745%)" offset="0.195312"/><stop stop-opacity="1" stop-color="rgb(11.643982%, 55.343628%, 81.3797%)" offset="0.203125"/><stop stop-opacity="1" stop-color="rgb(11.795044%, 55.097961%, 81.170654%)" offset="0.210938"/><stop stop-opacity="1" stop-color="rgb(11.94458%, 54.852295%, 80.963135%)" offset="0.21875"/><stop stop-opacity="1" stop-color="rgb(12.095642%, 54.606628%, 80.754089%)" offset="0.226562"/><stop stop-opacity="1" stop-color="rgb(12.246704%, 54.362488%, 80.545044%)" offset="0.234375"/><stop stop-opacity="1" stop-color="rgb(12.397766%, 54.116821%, 80.335999%)" offset="0.242188"/><stop stop-opacity="1" stop-color="rgb(12.548828%, 53.871155%, 80.128479%)" offset="0.25"/><stop stop-opacity="1" stop-color="rgb(12.698364%, 53.625488%, 79.919434%)" offset="0.257812"/><stop stop-opacity="1" stop-color="rgb(12.849426%, 53.381348%, 79.710388%)" offset="0.265625"/><stop stop-opacity="1" stop-color="rgb(13.000488%, 53.135681%, 79.502869%)" offset="0.273438"/><stop stop-opacity="1" stop-color="rgb(13.15155%, 52.890015%, 79.293823%)" offset="0.28125"/><stop stop-opacity="1" stop-color="rgb(13.302612%, 52.644348%, 79.084778%)" offset="0.289062"/><stop stop-opacity="1" stop-color="rgb(13.452148%, 52.398682%, 78.875732%)" offset="0.296875"/><stop stop-opacity="1" stop-color="rgb(13.60321%, 52.154541%, 78.668213%)" offset="0.304688"/><stop stop-opacity="1" stop-color="rgb(13.754272%, 51.908875%, 78.459167%)" offset="0.3125"/><stop stop-opacity="1" stop-color="rgb(13.905334%, 51.663208%, 78.250122%)" offset="0.320312"/><stop stop-opacity="1" stop-color="rgb(14.056396%, 51.417542%, 78.042603%)" offset="0.328125"/><stop stop-opacity="1" stop-color="rgb(14.207458%, 51.173401%, 77.833557%)" offset="0.335938"/><stop stop-opacity="1" stop-color="rgb(14.356995%, 50.927734%, 77.624512%)" offset="0.34375"/><stop stop-opacity="1" stop-color="rgb(14.508057%, 50.682068%, 77.416992%)" offset="0.351562"/><stop stop-opacity="1" stop-color="rgb(14.659119%, 50.436401%, 77.207947%)" offset="0.359375"/><stop stop-opacity="1" stop-color="rgb(14.810181%, 50.192261%, 76.998901%)" offset="0.367188"/><stop stop-opacity="1" stop-color="rgb(14.961243%, 49.946594%, 76.789856%)" offset="0.375"/><stop stop-opacity="1" stop-color="rgb(15.110779%, 49.700928%, 76.582336%)" offset="0.382812"/><stop stop-opacity="1" stop-color="rgb(15.261841%, 49.455261%, 76.373291%)" offset="0.390625"/><stop stop-opacity="1" stop-color="rgb(15.412903%, 49.211121%, 76.164246%)" offset="0.398438"/><stop stop-opacity="1" stop-color="rgb(15.563965%, 48.965454%, 75.956726%)" offset="0.40625"/><stop stop-opacity="1" stop-color="rgb(15.715027%, 48.719788%, 75.747681%)" offset="0.414062"/><stop stop-opacity="1" stop-color="rgb(15.866089%, 48.474121%, 75.538635%)" offset="0.421875"/><stop stop-opacity="1" stop-color="rgb(16.015625%, 48.228455%, 75.32959%)" offset="0.429688"/><stop stop-opacity="1" stop-color="rgb(16.166687%, 47.984314%, 75.12207%)" offset="0.4375"/><stop stop-opacity="1" stop-color="rgb(16.317749%, 47.738647%, 74.913025%)" offset="0.445312"/><stop stop-opacity="1" stop-color="rgb(16.468811%, 47.492981%, 74.703979%)" offset="0.453125"/><stop stop-opacity="1" stop-color="rgb(16.619873%, 47.247314%, 74.49646%)" offset="0.460938"/><stop stop-opacity="1" stop-color="rgb(16.769409%, 47.003174%, 74.287415%)" offset="0.46875"/><stop stop-opacity="1" stop-color="rgb(16.920471%, 46.757507%, 74.078369%)" offset="0.476562"/><stop stop-opacity="1" stop-color="rgb(17.071533%, 46.511841%, 73.87085%)" offset="0.484375"/><stop stop-opacity="1" stop-color="rgb(17.222595%, 46.266174%, 73.661804%)" offset="0.492188"/><stop stop-opacity="1" stop-color="rgb(17.373657%, 46.022034%, 73.452759%)" offset="0.5"/><stop stop-opacity="1" stop-color="rgb(17.524719%, 45.776367%, 73.243713%)" offset="0.507812"/><stop stop-opacity="1" stop-color="rgb(17.674255%, 45.530701%, 73.036194%)" offset="0.515625"/><stop stop-opacity="1" stop-color="rgb(17.825317%, 45.285034%, 72.827148%)" offset="0.523438"/><stop stop-opacity="1" stop-color="rgb(17.976379%, 45.039368%, 72.618103%)" offset="0.53125"/><stop stop-opacity="1" stop-color="rgb(18.127441%, 44.795227%, 72.410583%)" offset="0.539062"/><stop stop-opacity="1" stop-color="rgb(18.278503%, 44.549561%, 72.201538%)" offset="0.546875"/><stop stop-opacity="1" stop-color="rgb(18.42804%, 44.303894%, 71.992493%)" offset="0.554688"/><stop stop-opacity="1" stop-color="rgb(18.579102%, 44.058228%, 71.784973%)" offset="0.5625"/><stop stop-opacity="1" stop-color="rgb(18.730164%, 43.814087%, 71.575928%)" offset="0.570312"/><stop stop-opacity="1" stop-color="rgb(18.881226%, 43.56842%, 71.366882%)" offset="0.578125"/><stop stop-opacity="1" stop-color="rgb(19.032288%, 43.322754%, 71.157837%)" offset="0.585938"/><stop stop-opacity="1" stop-color="rgb(19.18335%, 43.077087%, 70.950317%)" offset="0.59375"/><stop stop-opacity="1" stop-color="rgb(19.332886%, 42.832947%, 70.741272%)" offset="0.601562"/><stop stop-opacity="1" stop-color="rgb(19.483948%, 42.58728%, 70.532227%)" offset="0.609375"/><stop stop-opacity="1" stop-color="rgb(19.63501%, 42.341614%, 70.324707%)" offset="0.617188"/><stop stop-opacity="1" stop-color="rgb(19.786072%, 42.095947%, 70.115662%)" offset="0.625"/><stop stop-opacity="1" stop-color="rgb(19.937134%, 41.850281%, 69.906616%)" offset="0.632812"/><stop stop-opacity="1" stop-color="rgb(20.08667%, 41.60614%, 69.697571%)" offset="0.640625"/><stop stop-opacity="1" stop-color="rgb(20.237732%, 41.360474%, 69.490051%)" offset="0.648438"/><stop stop-opacity="1" stop-color="rgb(20.388794%, 41.114807%, 69.281006%)" offset="0.65625"/><stop stop-opacity="1" stop-color="rgb(20.539856%, 40.869141%, 69.07196%)" offset="0.664062"/><stop stop-opacity="1" stop-color="rgb(20.690918%, 40.625%, 68.864441%)" offset="0.671875"/><stop stop-opacity="1" stop-color="rgb(20.840454%, 40.379333%, 68.655396%)" offset="0.679688"/><stop stop-opacity="1" stop-color="rgb(20.991516%, 40.133667%, 68.44635%)" offset="0.6875"/><stop stop-opacity="1" stop-color="rgb(21.142578%, 39.888%, 68.238831%)" offset="0.695312"/><stop stop-opacity="1" stop-color="rgb(21.29364%, 39.64386%, 68.029785%)" offset="0.703125"/><stop stop-opacity="1" stop-color="rgb(21.444702%, 39.398193%, 67.82074%)" offset="0.710938"/><stop stop-opacity="1" stop-color="rgb(21.595764%, 39.152527%, 67.611694%)" offset="0.71875"/><stop stop-opacity="1" stop-color="rgb(21.7453%, 38.90686%, 67.404175%)" offset="0.726562"/><stop stop-opacity="1" stop-color="rgb(21.896362%, 38.661194%, 67.195129%)" offset="0.734375"/><stop stop-opacity="1" stop-color="rgb(22.047424%, 38.417053%, 66.986084%)" offset="0.742188"/><stop stop-opacity="1" stop-color="rgb(22.198486%, 38.171387%, 66.778564%)" offset="0.75"/><stop stop-opacity="1" stop-color="rgb(22.349548%, 37.92572%, 66.569519%)" offset="0.757812"/><stop stop-opacity="1" stop-color="rgb(22.499084%, 37.680054%, 66.360474%)" offset="0.765625"/><stop stop-opacity="1" stop-color="rgb(22.650146%, 37.435913%, 66.152954%)" offset="0.773438"/><stop stop-opacity="1" stop-color="rgb(22.801208%, 37.190247%, 65.943909%)" offset="0.78125"/><stop stop-opacity="1" stop-color="rgb(22.952271%, 36.94458%, 65.734863%)" offset="0.789062"/><stop stop-opacity="1" stop-color="rgb(23.103333%, 36.698914%, 65.525818%)" offset="0.796875"/><stop stop-opacity="1" stop-color="rgb(23.254395%, 36.454773%, 65.318298%)" offset="0.804688"/><stop stop-opacity="1" stop-color="rgb(23.403931%, 36.209106%, 65.109253%)" offset="0.8125"/><stop stop-opacity="1" stop-color="rgb(23.554993%, 35.96344%, 64.900208%)" offset="0.820312"/><stop stop-opacity="1" stop-color="rgb(23.706055%, 35.717773%, 64.692688%)" offset="0.828125"/><stop stop-opacity="1" stop-color="rgb(23.857117%, 35.473633%, 64.483643%)" offset="0.835938"/><stop stop-opacity="1" stop-color="rgb(24.008179%, 35.227966%, 64.274597%)" offset="0.84375"/><stop stop-opacity="1" stop-color="rgb(24.157715%, 34.9823%, 64.065552%)" offset="0.851562"/><stop stop-opacity="1" stop-color="rgb(24.308777%, 34.736633%, 63.858032%)" offset="0.859375"/><stop stop-opacity="1" stop-color="rgb(24.459839%, 34.490967%, 63.648987%)" offset="0.867188"/><stop stop-opacity="1" stop-color="rgb(24.610901%, 34.246826%, 63.439941%)" offset="0.875"/><stop stop-opacity="1" stop-color="rgb(24.761963%, 34.00116%, 63.232422%)" offset="0.882812"/><stop stop-opacity="1" stop-color="rgb(24.913025%, 33.755493%, 63.023376%)" offset="0.890625"/><stop stop-opacity="1" stop-color="rgb(25.062561%, 33.509827%, 62.814331%)" offset="0.898438"/><stop stop-opacity="1" stop-color="rgb(25.213623%, 33.265686%, 62.606812%)" offset="0.90625"/><stop stop-opacity="1" stop-color="rgb(25.364685%, 33.02002%, 62.397766%)" offset="0.914062"/><stop stop-opacity="1" stop-color="rgb(25.515747%, 32.774353%, 62.188721%)" offset="0.921875"/><stop stop-opacity="1" stop-color="rgb(25.666809%, 32.528687%, 61.979675%)" offset="0.929688"/><stop stop-opacity="1" stop-color="rgb(25.816345%, 32.284546%, 61.772156%)" offset="0.9375"/><stop stop-opacity="1" stop-color="rgb(25.967407%, 32.038879%, 61.56311%)" offset="0.945312"/><stop stop-opacity="1" stop-color="rgb(26.118469%, 31.793213%, 61.354065%)" offset="0.953125"/><stop stop-opacity="1" stop-color="rgb(26.269531%, 31.547546%, 61.146545%)" offset="0.960938"/><stop stop-opacity="1" stop-color="rgb(26.420593%, 31.30188%, 60.9375%)" offset="0.96875"/><stop stop-opacity="1" stop-color="rgb(26.570129%, 31.057739%, 60.728455%)" offset="0.976562"/><stop stop-opacity="1" stop-color="rgb(26.721191%, 30.812073%, 60.520935%)" offset="0.984375"/><stop stop-opacity="1" stop-color="rgb(26.872253%, 30.566406%, 60.31189%)" offset="0.992188"/><stop stop-opacity="1" stop-color="rgb(27.023315%, 30.32074%, 60.102844%)" offset="1"/></linearGradient><clipPath id="a886ede6c7"><path d="M 1046.738281 1387.542969 L 1203.261719 1387.542969 L 1203.261719 1544.0625 L 1046.738281 1544.0625 Z M 1046.738281 1387.542969 " clip-rule="nonzero"/></clipPath><clipPath id="883c57e539"><path d="M 1125 1387.542969 C 1081.777344 1387.542969 1046.738281 1422.582031 1046.738281 1465.804688 C 1046.738281 1509.027344 1081.777344 1544.0625 1125 1544.0625 C 1168.222656 1544.0625 1203.261719 1509.027344 1203.261719 1465.804688 C 1203.261719 1422.582031 1168.222656 1387.542969 1125 1387.542969 " clip-rule="nonzero"/></clipPath><clipPath id="dfbface6d9"><path d="M 923.148438 1411.128906 L 1032.496094 1411.128906 L 1032.496094 1520.476562 L 923.148438 1520.476562 Z M 923.148438 1411.128906 " clip-rule="nonzero"/></clipPath><clipPath id="47730d6991"><path d="M 977.820312 1411.128906 C 947.625 1411.128906 923.148438 1435.609375 923.148438 1465.804688 C 923.148438 1496 947.625 1520.476562 977.820312 1520.476562 C 1008.015625 1520.476562 1032.496094 1496 1032.496094 1465.804688 C 1032.496094 1435.609375 1008.015625 1411.128906 977.820312 1411.128906 " clip-rule="nonzero"/></clipPath><clipPath id="738c4536d0"><path d="M 1217.503906 1411.128906 L 1326.851562 1411.128906 L 1326.851562 1520.476562 L 1217.503906 1520.476562 Z M 1217.503906 1411.128906 " clip-rule="nonzero"/></clipPath><clipPath id="09d6d90645"><path d="M 1272.179688 1411.128906 C 1241.984375 1411.128906 1217.503906 1435.609375 1217.503906 1465.804688 C 1217.503906 1496 1241.984375 1520.476562 1272.179688 1520.476562 C 1302.375 1520.476562 1326.851562 1496 1326.851562 1465.804688 C 1326.851562 1435.609375 1302.375 1411.128906 1272.179688 1411.128906 " clip-rule="nonzero"/></clipPath><clipPath id="88ab4ff660"><path d="M 1078.242188 1411.128906 L 1171.949219 1411.128906 L 1171.949219 1511.585938 L 1078.242188 1511.585938 Z M 1078.242188 1411.128906 " clip-rule="nonzero"/></clipPath><clipPath id="2b42646d76"><path d="M 270 542 L 906 542 L 906 1179 L 270 1179 Z M 270 542 " clip-rule="nonzero"/></clipPath><clipPath id="e86656d854"><path d="M 287.027344 1195.945312 L -47.992188 860.925781 L 588.121094 224.8125 L 923.140625 559.832031 Z M 287.027344 1195.945312 " clip-rule="nonzero"/></clipPath><clipPath id="db99a675eb"><path d="M 287.027344 1195.945312 L -47.992188 860.925781 L 588.121094 224.8125 L 923.140625 559.832031 Z M 287.027344 1195.945312 " clip-rule="nonzero"/></clipPath><clipPath id="2a77ae4e36"><path d="M 1344 1141 L 1980 1141 L 1980 1778 L 1344 1778 Z M 1344 1141 " clip-rule="nonzero"/></clipPath><clipPath id="4b85c138b1"><path d="M 1661.78125 2095.542969 L 1326.761719 1760.523438 L 1962.875 1124.410156 L 2297.894531 1459.429688 Z M 1661.78125 2095.542969 " clip-rule="nonzero"/></clipPath><clipPath id="caed552d07"><path d="M 1326.851562 1760.617188 L 1661.871094 2095.636719 L 2297.984375 1459.523438 L 1962.964844 1124.503906 Z M 1326.851562 1760.617188 " clip-rule="nonzero"/></clipPath></defs><g clip-path="url(#0e4ad2a9e2)"><path fill="#ffffff" d="M 0.5 0 L 2249.5 0 L 2249.5 2256.496094 L 0.5 2256.496094 Z M 0.5 0 " fill-opacity="1" fill-rule="nonzero"/><path fill="#ffffff" d="M 0.5 0 L 2249.5 0 L 2249.5 2249 L 0.5 2249 Z M 0.5 0 " fill-opacity="1" fill-rule="nonzero"/><path fill="url(#5db1ff1a93)" d="M 0.5 0 L 0.5 2249 L 2249.5 2249 L 2249.5 0 Z M 0.5 0 " fill-rule="nonzero"/></g><g clip-path="url(#a886ede6c7)"><g clip-path="url(#883c57e539)"><path fill="#ffffff" d="M 1046.738281 1387.542969 L 1203.261719 1387.542969 L 1203.261719 1544.0625 L 1046.738281 1544.0625 Z M 1046.738281 1387.542969 " fill-opacity="1" fill-rule="nonzero"/></g></g><g clip-path="url(#dfbface6d9)"><g clip-path="url(#47730d6991)"><path fill="#ffffff" d="M 923.148438 1411.128906 L 1032.496094 1411.128906 L 1032.496094 1520.476562 L 923.148438 1520.476562 Z M 923.148438 1411.128906 " fill-opacity="1" fill-rule="nonzero"/></g></g><g clip-path="url(#738c4536d0)"><g clip-path="url(#09d6d90645)"><path fill="#ffffff" d="M 1217.503906 1411.128906 L 1326.851562 1411.128906 L 1326.851562 1520.476562 L 1217.503906 1520.476562 Z M 1217.503906 1411.128906 " fill-opacity="1" fill-rule="nonzero"/></g></g><g clip-path="url(#88ab4ff660)"><path fill="#149ddd" d="M 1128.699219 1507.996094 L 1128.699219 1414.71875 C 1128.699219 1412.738281 1127.085938 1411.128906 1125.09375 1411.128906 C 1123.105469 1411.128906 1121.492188 1412.738281 1121.492188 1414.71875 L 1121.492188 1507.996094 C 1121.492188 1509.976562 1123.105469 1511.585938 1125.09375 1511.585938 C 1127.085938 1511.585938 1128.699219 1509.976562 1128.699219 1507.996094 Z M 1143.105469 1490.058594 L 1143.105469 1432.65625 C 1143.105469 1430.675781 1141.492188 1429.066406 1139.503906 1429.066406 C 1137.515625 1429.066406 1135.902344 1430.675781 1135.902344 1432.65625 L 1135.902344 1490.058594 C 1135.902344 1492.039062 1137.515625 1493.644531 1139.503906 1493.644531 C 1141.492188 1493.644531 1143.105469 1492.039062 1143.105469 1490.058594 Z M 1114.289062 1490.058594 L 1114.289062 1432.65625 C 1114.289062 1430.675781 1112.675781 1429.066406 1110.6875 1429.066406 C 1108.699219 1429.066406 1107.085938 1430.675781 1107.085938 1432.65625 L 1107.085938 1490.058594 C 1107.085938 1492.039062 1108.699219 1493.644531 1110.6875 1493.644531 C 1112.675781 1493.644531 1114.289062 1492.039062 1114.289062 1490.058594 Z M 1157.515625 1479.296875 L 1157.515625 1443.417969 C 1157.515625 1441.4375 1155.898438 1439.832031 1153.910156 1439.832031 C 1151.921875 1439.832031 1150.308594 1441.4375 1150.308594 1443.417969 L 1150.308594 1479.296875 C 1150.308594 1481.277344 1151.921875 1482.882812 1153.910156 1482.882812 C 1155.898438 1482.882812 1157.515625 1481.277344 1157.515625 1479.296875 Z M 1099.882812 1479.296875 L 1099.882812 1443.417969 C 1099.882812 1441.4375 1098.269531 1439.832031 1096.28125 1439.832031 C 1094.292969 1439.832031 1092.675781 1441.4375 1092.675781 1443.417969 L 1092.675781 1479.296875 C 1092.675781 1481.277344 1094.292969 1482.882812 1096.28125 1482.882812 C 1098.269531 1482.882812 1099.882812 1481.277344 1099.882812 1479.296875 Z M 1085.472656 1472.121094 L 1085.472656 1450.59375 C 1085.472656 1448.613281 1083.859375 1447.007812 1081.871094 1447.007812 C 1079.882812 1447.007812 1078.269531 1448.613281 1078.269531 1450.59375 L 1078.269531 1472.121094 C 1078.269531 1474.101562 1079.882812 1475.707031 1081.871094 1475.707031 C 1083.859375 1475.707031 1085.472656 1474.101562 1085.472656 1472.121094 Z M 1171.921875 1472.121094 L 1171.921875 1450.59375 C 1171.921875 1448.613281 1170.308594 1447.007812 1168.320312 1447.007812 C 1166.332031 1447.007812 1164.71875 1448.613281 1164.71875 1450.59375 L 1164.71875 1472.121094 C 1164.71875 1474.101562 1166.332031 1475.707031 1168.320312 1475.707031 C 1170.308594 1475.707031 1171.921875 1474.101562 1171.921875 1472.121094 Z M 1171.921875 1472.121094 " fill-opacity="1" fill-rule="evenodd"/></g><g clip-path="url(#2b42646d76)"><g clip-path="url(#e86656d854)"><g clip-path="url(#db99a675eb)"><path fill="#ffffff" d="M 270.152344 1178.691406 L 270.066406 542.867188 L 905.886719 542.953125 L 905.890625 577.082031 L 304.132812 576.933594 L 304.148438 1178.695312 Z M 270.152344 1178.691406 " fill-opacity="1" fill-rule="nonzero"/></g></g></g><g fill="#ffffff" fill-opacity="1"><g transform="translate(526.583213, 1269.598755)"><g><path d="M 95.71875 0 L 70.171875 -87.796875 L 52.53125 -87.796875 L 52.53125 0 L 17.265625 0 L 17.265625 -280.3125 L 85.640625 -280.3125 C 112.503906 -280.3125 125.9375 -268.195312 125.9375 -243.96875 L 125.9375 -124.140625 C 125.9375 -106.390625 118.742188 -95.117188 104.359375 -90.328125 L 133.5 0 Z M 52.53125 -253.6875 L 52.53125 -113.34375 L 76.640625 -113.34375 C 81.679688 -113.34375 85.28125 -114.421875 87.4375 -116.578125 C 89.601562 -118.742188 90.6875 -122.226562 90.6875 -127.03125 L 90.6875 -240.015625 C 90.6875 -244.816406 89.601562 -248.296875 87.4375 -250.453125 C 85.28125 -252.609375 81.679688 -253.6875 76.640625 -253.6875 Z M 52.53125 -253.6875 "/></g></g></g><g fill="#ffffff" fill-opacity="1"><g transform="translate(662.602508, 1269.598755)"><g><path d="M 52.171875 -128.828125 L 52.171875 -26.625 L 113.703125 -26.625 L 113.703125 0 L 17.265625 0 L 17.265625 -280.3125 L 110.828125 -280.3125 L 110.828125 -253.6875 L 52.171875 -253.6875 L 52.171875 -155.453125 L 102.203125 -155.453125 L 102.203125 -128.828125 Z M 52.171875 -128.828125 "/></g></g></g><g fill="#ffffff" fill-opacity="1"><g transform="translate(782.429061, 1269.598755)"><g><path d="M 110.46875 -280.3125 L 110.46875 -253.6875 L 52.171875 -253.6875 L 52.171875 -154.015625 L 99.671875 -154.015625 L 99.671875 -128.46875 L 52.171875 -128.46875 L 52.171875 0 L 17.265625 0 L 17.265625 -280.3125 Z M 110.46875 -280.3125 "/></g></g></g><g fill="#ffffff" fill-opacity="1"><g transform="translate(897.937504, 1269.598755)"><g><path d="M 52.53125 -280.3125 L 52.53125 -26.625 L 106.875 -26.625 L 106.875 0 L 17.265625 0 L 17.265625 -280.3125 Z M 52.53125 -280.3125 "/></g></g></g><g fill="#ffffff" fill-opacity="1"><g transform="translate(1005.889338, 1269.598755)"><g><path d="M 52.171875 -128.828125 L 52.171875 -26.625 L 113.703125 -26.625 L 113.703125 0 L 17.265625 0 L 17.265625 -280.3125 L 110.828125 -280.3125 L 110.828125 -253.6875 L 52.171875 -253.6875 L 52.171875 -155.453125 L 102.203125 -155.453125 L 102.203125 -128.828125 Z M 52.171875 -128.828125 "/></g></g></g><g fill="#ffffff" fill-opacity="1"><g transform="translate(1125.715869, 1269.598755)"><g><path d="M 124.859375 -177.765625 L 89.59375 -177.765625 L 89.59375 -241.8125 C 89.59375 -246.613281 88.570312 -250.03125 86.53125 -252.0625 C 84.5 -254.101562 81.082031 -255.125 76.28125 -255.125 L 63.6875 -255.125 C 59.132812 -255.125 55.773438 -254.101562 53.609375 -252.0625 C 51.453125 -250.03125 50.375 -246.613281 50.375 -241.8125 L 50.375 -38.140625 C 50.375 -33.347656 51.453125 -29.929688 53.609375 -27.890625 C 55.773438 -25.847656 59.132812 -24.828125 63.6875 -24.828125 L 76.28125 -24.828125 C 81.082031 -24.828125 84.5 -25.847656 86.53125 -27.890625 C 88.570312 -29.929688 89.59375 -33.347656 89.59375 -38.140625 L 89.59375 -101.828125 L 124.859375 -101.828125 L 124.859375 -36.34375 C 124.859375 -11.875 111.304688 0.359375 84.203125 0.359375 L 55.78125 0.359375 C 28.90625 0.359375 15.46875 -11.875 15.46875 -36.34375 L 15.46875 -243.96875 C 15.46875 -268.195312 28.90625 -280.3125 55.78125 -280.3125 L 84.203125 -280.3125 C 111.304688 -280.3125 124.859375 -268.195312 124.859375 -243.96875 Z M 124.859375 -177.765625 "/></g></g></g><g fill="#ffffff" fill-opacity="1"><g transform="translate(1262.095056, 1269.598755)"><g><path d="M 104 -280.3125 L 104 -253.6875 L 70.53125 -253.6875 L 70.53125 0 L 35.265625 0 L 35.265625 -253.6875 L 1.796875 -253.6875 L 1.796875 -280.3125 Z M 104 -280.3125 "/></g></g></g><g fill="#ffffff" fill-opacity="1"><g transform="translate(1367.887801, 1269.598755)"><g><path d="M 54.34375 0 L 19.078125 0 L 19.078125 -280.3125 L 54.34375 -280.3125 Z M 54.34375 0 "/></g></g></g><g fill="#ffffff" fill-opacity="1"><g transform="translate(1440.935197, 1269.598755)"><g><path d="M 82.40625 -280.3125 C 109.507812 -280.3125 123.0625 -268.195312 123.0625 -243.96875 L 123.0625 -36.34375 C 123.0625 -12.113281 109.507812 0 82.40625 0 L 56.140625 0 C 42.222656 0 32.023438 -3.054688 25.546875 -9.171875 C 19.066406 -15.296875 15.828125 -24.351562 15.828125 -36.34375 L 15.828125 -243.96875 C 15.828125 -268.195312 29.265625 -280.3125 56.140625 -280.3125 Z M 87.796875 -240.015625 C 87.796875 -244.816406 86.71875 -248.296875 84.5625 -250.453125 C 82.40625 -252.609375 78.804688 -253.6875 73.765625 -253.6875 L 64.765625 -253.6875 C 59.972656 -253.6875 56.492188 -252.609375 54.328125 -250.453125 C 52.171875 -248.296875 51.09375 -244.816406 51.09375 -240.015625 L 51.09375 -39.9375 C 51.09375 -35.144531 52.171875 -31.726562 54.328125 -29.6875 C 56.492188 -27.644531 59.972656 -26.625 64.765625 -26.625 L 73.765625 -26.625 C 78.804688 -26.625 82.40625 -27.644531 84.5625 -29.6875 C 86.71875 -31.726562 87.796875 -35.144531 87.796875 -39.9375 Z M 87.796875 -240.015625 "/></g></g></g><g fill="#ffffff" fill-opacity="1"><g transform="translate(1579.473379, 1269.598755)"><g><path d="M 50.015625 0 L 17.265625 0 L 17.265625 -280.3125 L 54.703125 -280.3125 L 93.921875 -61.890625 L 93.921875 -280.3125 L 126.671875 -280.3125 L 126.671875 0 L 90.6875 0 L 50.015625 -220.578125 Z M 50.015625 0 "/></g></g></g><g fill="#ffffff" fill-opacity="1"><g transform="translate(882.471445, 921.410558)"><g><path d="M 57.308594 0 C 58.824219 0 59.609375 -0.785156 59.609375 -2.300781 L 59.609375 -11.675781 C 59.609375 -13.132812 58.824219 -13.976562 57.308594 -13.976562 L 24.304688 -13.976562 L 24.304688 -28.402344 L 52.816406 -28.402344 C 54.332031 -28.402344 55.121094 -29.1875 55.121094 -30.703125 L 55.121094 -39.460938 C 55.121094 -40.976562 54.332031 -41.761719 52.816406 -41.761719 L 24.304688 -41.761719 L 24.304688 -72.238281 L 57.308594 -72.238281 C 58.824219 -72.238281 59.609375 -73.082031 59.609375 -74.539062 L 59.609375 -83.914062 C 59.609375 -85.429688 58.824219 -86.214844 57.308594 -86.214844 L 10.832031 -86.214844 C 9.316406 -86.214844 8.53125 -85.429688 8.53125 -83.914062 L 8.53125 -2.300781 C 8.53125 -0.785156 9.316406 0 10.832031 0 Z M 57.308594 0 "/></g></g></g><g fill="#ffffff" fill-opacity="1"><g transform="translate(947.408642, 921.410558)"><g><path d="M 33.789062 0 C 63.425781 0 79.480469 -16.222656 79.480469 -43.164062 C 79.480469 -70.386719 63.203125 -86.214844 33.789062 -86.214844 L 10.832031 -86.214844 C 9.316406 -86.214844 8.53125 -85.429688 8.53125 -83.914062 L 8.53125 -2.300781 C 8.53125 -0.785156 9.316406 0 10.832031 0 Z M 24.417969 -72.238281 L 33.734375 -72.238281 C 52.816406 -72.238281 63.707031 -62.023438 63.707031 -43.332031 C 63.707031 -24.640625 52.816406 -13.976562 33.734375 -13.976562 L 24.417969 -13.976562 Z M 24.417969 -72.238281 "/></g></g></g><g fill="#ffffff" fill-opacity="1"><g transform="translate(1032.04588, 921.410558)"><g/></g></g><g fill="#ffffff" fill-opacity="1"><g transform="translate(1066.506931, 921.410558)"><g><path d="M 36.261719 0 C 37.773438 0 38.5625 -0.785156 38.5625 -2.300781 L 38.5625 -72.238281 L 57.253906 -72.238281 C 58.769531 -72.238281 59.554688 -73.082031 59.554688 -74.539062 L 59.554688 -83.914062 C 59.554688 -85.429688 58.769531 -86.214844 57.253906 -86.214844 L 4.042969 -86.214844 C 2.527344 -86.214844 1.738281 -85.429688 1.738281 -83.914062 L 1.738281 -74.539062 C 1.738281 -73.082031 2.527344 -72.238281 4.042969 -72.238281 L 22.675781 -72.238281 L 22.675781 -2.300781 C 22.675781 -0.785156 23.519531 0 24.976562 0 Z M 36.261719 0 "/></g></g></g><g fill="#ffffff" fill-opacity="1"><g transform="translate(1127.852109, 921.410558)"><g><path d="M 57.308594 0 C 58.824219 0 59.609375 -0.785156 59.609375 -2.300781 L 59.609375 -11.675781 C 59.609375 -13.132812 58.824219 -13.976562 57.308594 -13.976562 L 24.304688 -13.976562 L 24.304688 -28.402344 L 52.816406 -28.402344 C 54.332031 -28.402344 55.121094 -29.1875 55.121094 -30.703125 L 55.121094 -39.460938 C 55.121094 -40.976562 54.332031 -41.761719 52.816406 -41.761719 L 24.304688 -41.761719 L 24.304688 -72.238281 L 57.308594 -72.238281 C 58.824219 -72.238281 59.609375 -73.082031 59.609375 -74.539062 L 59.609375 -83.914062 C 59.609375 -85.429688 58.824219 -86.214844 57.308594 -86.214844 L 10.832031 -86.214844 C 9.316406 -86.214844 8.53125 -85.429688 8.53125 -83.914062 L 8.53125 -2.300781 C 8.53125 -0.785156 9.316406 0 10.832031 0 Z M 57.308594 0 "/></g></g></g><g fill="#ffffff" fill-opacity="1"><g transform="translate(1192.789295, 921.410558)"><g><path d="M 50.460938 2.019531 C 64.605469 2.019531 76.5625 -3.3125 84.585938 -12.125 C 85.542969 -13.132812 85.316406 -14.199219 84.082031 -15.15625 L 74.988281 -21.554688 C 73.867188 -22.453125 72.800781 -22.285156 71.847656 -21.273438 C 66.570312 -15.941406 59.105469 -12.628906 50.515625 -12.628906 C 33.621094 -12.628906 20.769531 -24.808594 20.769531 -43.164062 C 20.769531 -61.460938 33.621094 -73.585938 50.40625 -73.585938 C 59.105469 -73.585938 66.515625 -70.273438 71.847656 -64.941406 C 72.800781 -63.933594 73.921875 -63.761719 74.988281 -64.660156 L 84.082031 -71.117188 C 85.261719 -72.070312 85.429688 -73.191406 84.363281 -74.261719 C 76.28125 -83.015625 64.4375 -88.234375 50.40625 -88.234375 C 24.472656 -88.234375 4.9375 -70.164062 4.9375 -43.109375 C 4.9375 -16.054688 24.417969 2.019531 50.460938 2.019531 Z M 50.460938 2.019531 "/></g></g></g><g fill="#ffffff" fill-opacity="1"><g transform="translate(1281.523688, 921.410558)"><g><path d="M 22.003906 0 C 23.519531 0 24.304688 -0.785156 24.304688 -2.300781 L 24.304688 -28.121094 L 61.628906 -28.121094 L 61.628906 -2.300781 C 61.628906 -0.785156 62.417969 0 63.933594 0 L 75.101562 0 C 76.617188 0 77.402344 -0.785156 77.402344 -2.300781 L 77.402344 -83.914062 C 77.402344 -85.429688 76.617188 -86.214844 75.101562 -86.214844 L 63.933594 -86.214844 C 62.417969 -86.214844 61.628906 -85.429688 61.628906 -83.914062 L 61.628906 -42.097656 L 24.304688 -42.097656 L 24.304688 -83.914062 C 24.304688 -85.429688 23.519531 -86.214844 22.003906 -86.214844 L 10.832031 -86.214844 C 9.316406 -86.214844 8.53125 -85.429688 8.53125 -83.914062 L 8.53125 -2.300781 C 8.53125 -0.785156 9.316406 0 10.832031 0 Z M 22.003906 0 "/></g></g></g><g clip-path="url(#2a77ae4e36)"><g clip-path="url(#4b85c138b1)"><g clip-path="url(#caed552d07)"><path fill="#ffffff" d="M 1344.105469 1777.492188 L 1979.929688 1777.578125 L 1979.839844 1141.757812 L 1945.714844 1141.753906 L 1945.863281 1743.511719 L 1344.101562 1743.496094 Z M 1344.105469 1777.492188 " fill-opacity="1" fill-rule="nonzero"/></g></g></g></svg>